<svg width="40" height="40" viewBox="0 0 40 40" fill="none" xmlns="http://www.w3.org/2000/svg">
<rect width="40" height="40" rx="20" fill="url(#paint0_linear_72_305)"/>
<rect width="40" height="40" rx="20" fill="url(#paint1_linear_72_305)"/>
<path d="M30.9987 21.709V6.90527H9.00128V21.709C8.98798 22.2407 9.05446 24.042 10.374 26.1988C12.0343 28.9139 14.971 31.1156 19.1009 32.7407L20 33.0947L20.8991 32.7407C25.029 31.1156 27.9657 28.9139 29.626 26.1988C30.9455 24.042 31.012 22.2407 30.9987 21.709ZM20.4903 31.7022L20 31.895L19.5097 31.7022C10.2311 28.0499 10.0948 22.4518 10.1181 21.7256V8.02191H29.8836V21.7256C29.9052 22.4501 29.7689 28.0499 20.4903 31.7022Z" fill="white"/>
<path d="M22.0623 12.2922C22.0989 12.3487 22.1321 12.4069 22.1604 12.4667C22.162 12.3986 22.1637 12.3305 22.1654 12.2656C22.1703 12.136 22.1986 12.028 22.2501 11.9433C22.3016 11.8585 22.3631 11.7921 22.4362 11.7439C22.5094 11.6957 22.5908 11.6608 22.6822 11.6375C22.772 11.6143 22.8567 11.5977 22.9365 11.586V11.5013H21.0552C21.1649 11.5428 21.2712 11.5927 21.3759 11.6508C21.6502 11.8037 21.8812 12.0181 22.0623 12.2922Z" fill="white"/>
<path d="M26.1424 17.4276C26.0178 17.3827 25.9197 17.3029 25.8466 17.19C25.8134 17.1384 25.7918 17.0454 25.7835 16.9058C25.7752 16.7679 25.7702 16.6167 25.7702 16.4522C25.7702 16.2495 25.7685 16.0634 25.7652 15.8939C25.7619 15.7244 25.7602 15.5615 25.7602 15.402C25.7602 15.2375 25.7602 15.0747 25.7602 14.9102C25.7602 14.7407 25.7602 14.5512 25.7602 14.3435V12.8962C25.7602 12.8115 25.7602 12.7234 25.7602 12.6337C25.7602 12.544 25.7635 12.4542 25.7685 12.3662C25.7735 12.2781 25.7818 12.2 25.7934 12.1285C25.8051 12.0588 25.8217 12.0023 25.845 11.964C25.9065 11.851 26.0028 11.7646 26.1325 11.7065C26.2621 11.6467 26.3951 11.6084 26.5313 11.5918V11.5071H23.9836V11.5918C24.1132 11.5968 24.2429 11.6184 24.3725 11.655C24.5021 11.6915 24.6185 11.7862 24.7198 11.9391C24.7647 12.0122 24.7913 12.1069 24.7996 12.2233C24.8079 12.3396 24.8146 12.4509 24.8212 12.5572C24.8262 12.7434 24.8295 12.9095 24.8295 13.0574C24.8295 13.2036 24.8295 13.3482 24.8295 13.4894C24.8295 13.6307 24.8295 13.7769 24.8295 13.9298C24.8295 14.076 24.8295 14.2405 24.8295 14.4216H22.1488C22.1488 14.3651 22.1488 14.2604 22.1488 14.1076C22.1488 14.1009 22.1488 14.0959 22.1488 14.0893C22.0857 14.2123 22.0109 14.3269 21.9244 14.4283C21.8031 14.5712 21.6585 14.6975 21.4957 14.8022C21.4076 14.8586 21.3162 14.9085 21.2264 14.9517C21.2264 15.1461 21.2248 15.3355 21.2231 15.5183C21.2198 15.6795 21.2181 15.8274 21.2148 15.9637C21.2115 16.0999 21.2098 16.2063 21.2098 16.286C21.2098 16.3757 21.2065 16.4705 21.2015 16.5702C21.1965 16.6682 21.1882 16.7612 21.1799 16.846C21.1716 16.9307 21.16 17.0055 21.1467 17.0703C21.1317 17.1351 21.1134 17.1816 21.0918 17.2099C21.0237 17.2897 20.9256 17.3545 20.796 17.4093C20.6763 17.4591 20.5068 17.5239 20.3556 17.5239H19.9351C19.8071 17.5239 19.6177 17.4924 19.4947 17.4641C19.3684 17.4359 19.2371 17.406 19.0925 17.3113C19.0393 17.2764 18.9828 17.2248 18.9147 17.1717C18.8465 17.1185 18.7767 17.057 18.7036 16.9889C18.6305 16.9208 18.5657 16.8543 18.5092 16.7862C18.2715 16.5203 18.0255 16.2445 17.7679 15.957C17.5103 15.6695 17.2694 15.3987 17.0433 15.1445C16.8173 14.8902 16.6229 14.6692 16.46 14.4798C16.2955 14.2904 16.1924 14.1674 16.1475 14.1109C16.2439 14.0095 16.3486 13.9015 16.465 13.7852C16.5813 13.6689 16.6993 13.5493 16.8206 13.4263C16.942 13.3017 17.0649 13.1787 17.1896 13.0541C17.3142 12.9295 17.4355 12.8148 17.5535 12.7068C17.8577 12.4243 18.1568 12.1767 18.451 11.9624C18.5839 11.866 18.7169 11.7879 18.8482 11.7297C19.0709 11.6317 19.4997 11.6417 19.5445 11.645C19.5894 11.6467 19.6243 11.65 19.6642 11.6516C19.6825 11.6533 19.6974 11.655 19.7107 11.655C19.7739 11.66 19.8354 11.6666 19.8969 11.6766C20.0481 11.6998 20.1927 11.7414 20.3273 11.8029C20.5982 11.9325 20.8159 12.1236 20.9821 12.3761C21.1483 12.6287 21.2314 12.9195 21.2314 13.2452C21.2314 13.5991 21.135 13.9181 20.9439 14.2023C20.7528 14.4864 20.4769 14.6908 20.1163 14.8138C19.9418 14.8753 19.754 14.9135 19.5512 14.9284C19.3484 14.9417 19.1324 14.95 18.9014 14.95C18.9014 14.9052 18.9014 14.7805 18.9014 14.5795C18.9014 14.3768 18.9014 14.1408 18.9014 13.87C18.9014 13.5991 18.903 13.3249 18.9064 13.0425C18.9097 12.7616 18.913 12.5224 18.9197 12.3246C18.9246 12.195 18.9313 12.0953 18.9363 12.0255C18.9396 11.989 18.9413 11.9574 18.9446 11.9291C18.8249 11.9823 18.7036 12.0521 18.5823 12.1418C18.3845 12.2864 18.1818 12.4492 17.979 12.6254C17.9807 12.7168 17.9823 12.8082 17.9823 12.8979V14.5429C17.9823 14.6941 17.9823 14.8586 17.9823 15.0331C17.9823 15.2026 17.9807 15.3671 17.9773 15.5266C17.9757 15.6396 17.974 15.7476 17.9707 15.849L18.6754 16.6383C18.7319 16.7048 18.79 16.7662 18.8548 16.8261C18.8798 16.8493 18.9047 16.8709 18.9296 16.8925C18.928 16.8792 18.9263 16.8676 18.9263 16.856C18.9213 16.7264 18.9147 16.5718 18.9097 16.3924C18.9097 16.296 18.908 16.2079 18.9047 16.1265C18.9014 16.0451 18.8997 15.957 18.8997 15.8606C18.8997 15.7643 18.8997 15.6546 18.8997 15.5316C18.8997 15.402 18.8997 15.2475 18.8997 15.068C19.0343 15.068 19.1872 15.068 19.3551 15.068C19.5296 15.068 19.7074 15.0614 19.8902 15.0464C20.073 15.0331 20.2542 15.0115 20.4353 14.9833C20.6148 14.955 20.7844 14.9135 20.9422 14.857C21.0935 14.8005 21.2431 14.7257 21.3893 14.6327C21.5356 14.5396 21.6635 14.4283 21.7732 14.2987C21.8829 14.1691 21.971 14.0195 22.0391 13.8517C22.1073 13.6822 22.1405 13.4944 22.1405 13.2867C22.1405 12.9494 22.0591 12.6569 21.8962 12.4094C21.7333 12.1618 21.5272 11.9707 21.2796 11.8361C21.027 11.6948 20.7561 11.6068 20.4703 11.5702C20.1994 11.5353 19.8902 11.517 19.5445 11.5154L17.0533 11.5137V11.5985C17.1996 11.6217 17.3292 11.6699 17.4422 11.743C17.5552 11.8161 17.6117 11.9341 17.6117 12.0986C17.6117 12.195 17.5735 12.3014 17.497 12.421C17.4206 12.539 17.3342 12.6553 17.2394 12.7683C17.1048 12.9145 16.9436 13.0873 16.7575 13.2851C16.5713 13.4828 16.3835 13.6739 16.1941 13.86C16.0046 14.0461 15.8251 14.2139 15.6523 14.3635C15.4794 14.513 15.3432 14.6194 15.2418 14.6808C15.2418 14.3651 15.2418 14.1059 15.2418 13.9015C15.2418 13.6922 15.2418 13.5144 15.2418 13.3681C15.2418 13.2219 15.2434 13.0923 15.2468 12.9793C15.2501 12.8663 15.2534 12.745 15.2601 12.6154C15.2651 12.3778 15.295 12.195 15.3482 12.0654C15.4013 11.9358 15.4678 11.8378 15.5476 11.7729C15.6257 11.7081 15.7171 11.6666 15.8185 11.6467C15.9199 11.6267 16.0246 11.6118 16.1309 11.6001V11.5154H13.5034V11.6001C13.6496 11.6167 13.7793 11.6483 13.8923 11.6932C14.0053 11.7381 14.1017 11.8095 14.1798 11.9042C14.2413 11.984 14.2795 12.1136 14.2945 12.293C14.3078 12.4742 14.3161 12.6719 14.3161 12.8863V14.5363C14.3161 14.6892 14.3161 14.852 14.3161 15.0265C14.3161 15.196 14.3161 15.3621 14.3161 15.5266C14.3161 15.6845 14.3144 15.8307 14.3111 15.967C14.3078 16.1016 14.3061 16.2096 14.3061 16.2893C14.3061 16.3791 14.3045 16.4738 14.3011 16.5735C14.2978 16.6715 14.2928 16.7646 14.2845 16.8526C14.2762 16.9407 14.2629 17.0171 14.2463 17.0853C14.2297 17.1534 14.2064 17.2032 14.1781 17.2381C14.11 17.3179 14.012 17.3794 13.8823 17.4242C13.7527 17.4691 13.6164 17.504 13.4768 17.5256V17.6104H16.1941V17.5256C16.1376 17.5206 16.0711 17.5107 15.9946 17.4957C15.9182 17.4824 15.8401 17.4625 15.762 17.4359C15.6822 17.411 15.6091 17.3777 15.5426 17.3378C15.4745 17.298 15.4213 17.2498 15.3814 17.1933C15.3249 17.1202 15.2883 17.0122 15.2717 16.8709C15.2551 16.7297 15.2434 16.5768 15.2385 16.414C15.2335 16.2279 15.2302 16.0052 15.2302 15.746C15.2302 15.4801 15.2302 15.2009 15.2302 14.9085C15.2468 14.8636 15.2617 14.8304 15.2767 14.8105C15.29 14.7905 15.3199 14.7805 15.3664 14.7805C15.4063 14.7805 15.4529 14.8005 15.506 14.8404C15.5592 14.8802 15.6606 14.9816 15.8068 15.1445C16.1575 15.5283 16.4932 15.9072 16.819 16.2827C17.143 16.6582 17.4871 17.0537 17.8477 17.4724C17.8809 17.5123 17.9125 17.5422 17.9408 17.5605C17.969 17.5804 17.994 17.5954 18.0172 17.607H22.8884V17.5223C22.7704 17.5107 22.6491 17.4807 22.5244 17.4292C22.3998 17.3777 22.3034 17.3046 22.2369 17.2082C22.192 17.1468 22.1654 17.0387 22.1604 16.8859C22.1555 16.733 22.1521 16.5751 22.1521 16.4123V14.5895H24.8328C24.8328 14.646 24.8328 14.744 24.8328 14.8852C24.8328 15.0215 24.8328 15.1793 24.8328 15.3588C24.8328 15.5333 24.8328 15.7227 24.8328 15.9254C24.8328 16.1232 24.8295 16.3143 24.8245 16.502C24.8245 16.5702 24.8229 16.6399 24.8195 16.7131C24.8162 16.7862 24.8129 16.8576 24.8063 16.9241C24.8013 16.9922 24.793 17.0504 24.7846 17.1019C24.7763 17.1534 24.7664 17.1866 24.7547 17.2032C24.7099 17.2764 24.6168 17.3428 24.4755 17.4026C24.3343 17.4625 24.1598 17.5007 23.9504 17.5173V17.602H26.5513V17.5173C26.4034 17.5023 26.2671 17.4724 26.1424 17.4276Z" fill="white"/>
<path d="M28.9898 21.7407V8.91431H11.0109V21.7407C10.9959 22.1179 10.9527 27.3737 19.8375 30.8715L20.0003 30.9363L20.1632 30.8715C29.0479 27.3753 29.0047 22.1179 28.9898 21.7407ZM20.0003 30.4561C19.2142 30.147 18.5029 29.823 17.8548 29.4906C17.8199 29.1766 17.8016 28.8708 17.8066 28.6033C17.8332 28.5285 17.8614 28.4554 17.8897 28.3856C18.0243 28.0583 18.2586 27.7858 18.4464 27.4883C18.6525 27.161 18.8769 26.8436 19.0746 26.5113C19.176 26.3418 19.294 26.1906 19.427 26.0543C18.2586 26.2421 17.5889 25.7934 17.3229 25.5326C18.3101 26.066 19.4635 25.9629 19.9987 25.5741C19.9904 25.5857 19.9854 25.5974 19.9804 25.609C20.464 25.28 20.9742 24.9992 21.5077 24.7566C21.8451 24.6037 22.1858 24.4475 22.5697 24.4458C22.593 24.4458 22.6162 24.4442 22.6395 24.4442C22.7176 24.4525 22.799 24.4558 22.8821 24.4508C22.9087 24.4492 22.9337 24.4475 22.9602 24.4442C23.0583 24.4458 23.148 24.4425 23.2295 24.4226C23.758 24.298 24.0438 23.8609 23.9823 23.3624C23.9408 23.0351 23.7148 22.0165 23.7696 21.7174C23.8328 21.3651 23.6283 20.9696 23.1846 20.8849C22.8389 20.8201 20.9028 20.3864 20.2646 20.1072C19.9771 19.981 19.7477 20.0325 19.6679 20.0474C19.186 20.1355 17.7152 20.5725 17.2482 20.7187C16.8609 20.8417 16.4222 21.1092 16.251 21.179C15.8771 20.9946 15.5546 20.9547 15.3668 21.0079C15.0079 21.1092 14.8101 21.4166 14.83 21.744C14.835 21.7722 14.845 21.9118 14.9264 22.0597L14.9281 22.0614C15.0128 22.2142 15.1757 22.3738 15.4898 22.4186C15.1624 22.4352 15.081 22.4269 14.9381 22.3106C14.9248 22.3239 14.9098 22.3422 14.8949 22.3638C13.6683 23.8742 12.4884 24.1534 12.1045 24.2049C11.4081 22.7692 11.4629 21.7506 11.4629 21.7506V9.35963H20.007H28.551V21.7506C28.5427 21.7506 28.8269 26.9815 20.0003 30.4561Z" fill="white"/>
<path d="M26.0357 20.1701C25.961 20.3246 25.8197 20.4559 25.6236 20.5024C25.7815 20.4227 25.9493 20.2299 25.9726 20.1468C25.9743 20.1368 25.9776 20.1236 25.9792 20.1053C25.9925 19.9574 25.9477 19.8477 25.8978 19.7763C25.7599 19.5785 25.6319 19.311 25.6286 18.9205C25.6286 18.8939 25.6136 18.8108 25.5654 18.766C25.469 18.6779 25.346 18.7045 25.2779 18.766C25.2314 18.8092 25.0818 19.0451 25.0386 19.1232C25.0203 19.1565 24.997 19.1997 24.9788 19.2329C24.9189 19.3525 24.766 19.635 24.6713 20.3861C24.6314 19.6716 24.8425 19.2196 24.8973 19.0634C24.8342 18.9488 24.7777 18.8574 24.7461 18.771C24.7145 18.6846 24.663 18.663 24.6347 18.6447C24.5034 18.5815 24.3738 18.6763 24.3505 18.7793C24.2974 19.0119 24.2824 19.1631 24.2758 19.3343C24.2625 19.6699 24.3306 20.0072 24.4037 20.2299C24.4087 20.2449 24.4386 20.3379 24.4702 20.4143C24.2857 20.3562 24.181 20.3429 24.0082 20.3163C24.0281 20.3263 24.0447 20.3462 24.0564 20.3628C24.176 20.3761 24.3539 20.4044 24.4802 20.4459C24.4536 20.4509 24.3971 20.4808 24.3888 20.544C24.3788 20.6254 24.4636 20.7051 24.5566 20.6619C24.6081 20.7832 24.6896 20.8447 24.7029 20.8547C24.8824 20.9909 24.9638 20.9378 25.0934 20.9959C25.1965 21.0408 25.2347 21.0641 25.2995 21.1654C25.3444 21.2352 25.5172 21.3416 25.6086 21.3515C25.6668 21.3582 25.8064 21.3681 25.7781 21.3266C25.7117 21.2236 25.5355 21.0458 25.4275 20.9511C25.3959 20.9228 25.346 20.8829 25.2912 20.8397C25.5771 20.8796 25.8696 20.971 26.0906 21.0923C26.4197 21.2718 26.531 21.0275 26.546 20.9677C26.5842 20.7965 26.4379 20.2615 26.0357 20.1701Z" fill="white"/>
<defs>
<linearGradient id="paint0_linear_72_305" x1="18.75" y1="27.9167" x2="56.582" y2="1.3969" gradientUnits="userSpaceOnUse">
<stop stop-color="#00205A"/>
<stop offset="0.345" stop-color="#0075EC"/>
<stop offset="0.925" stop-color="#79BBFF"/>
</linearGradient>
<linearGradient id="paint1_linear_72_305" x1="20" y1="0" x2="20" y2="40" gradientUnits="userSpaceOnUse">
<stop stop-color="#3C4D55" stop-opacity="0"/>
<stop offset="0.0001" stop-color="#3C4D55"/>
</linearGradient>
</defs>
</svg>
