<svg width="244" height="56" viewBox="0 0 244 56" fill="none" xmlns="http://www.w3.org/2000/svg">
<path d="M47.0389 31.6543V0H0.00273583V31.6543C-0.0256934 32.7913 0.116452 36.6429 2.93805 41.2547C6.48815 47.0605 12.7675 51.7683 21.5983 55.2432L23.5208 56L25.4433 55.2432C34.2742 51.7683 40.5535 47.0605 44.1035 41.2547C46.9252 36.6429 47.0673 32.7913 47.0389 31.6543ZM24.5691 53.0225L23.5208 53.4347L22.4725 53.0225C2.63244 45.2129 2.34104 33.2426 2.39079 31.6899V2.38767H44.6544V31.6899C44.7006 33.239 44.4092 45.2129 24.5691 53.0225Z" fill="#3D4D55"/>
<path d="M27.9308 11.519C28.009 11.6398 28.08 11.7642 28.1405 11.8921C28.144 11.7464 28.1476 11.6007 28.1511 11.4622C28.1618 11.185 28.2222 10.9541 28.3324 10.7729C28.4425 10.5917 28.574 10.4495 28.7304 10.3465C28.8867 10.2435 29.0609 10.1689 29.2563 10.1191C29.4482 10.0694 29.6294 10.0338 29.8 10.009V9.82776H25.7773C26.0118 9.91659 26.2393 10.0232 26.4631 10.1475C27.0495 10.4744 27.5434 10.9328 27.9308 11.519Z" fill="#3D4D55"/>
<path d="M36.6551 22.4945C36.3885 22.3986 36.1789 22.228 36.0225 21.9864C35.9514 21.8763 35.9052 21.6773 35.8875 21.3788C35.8697 21.0839 35.859 20.7606 35.859 20.4088C35.859 19.9754 35.8555 19.5774 35.8484 19.215C35.8413 18.8526 35.8377 18.5044 35.8377 18.1633C35.8377 17.8116 35.8377 17.4633 35.8377 17.1116C35.8377 16.7492 35.8377 16.3441 35.8377 15.9V12.8053C35.8377 12.6241 35.8377 12.4357 35.8377 12.2439C35.8377 12.052 35.8448 11.8602 35.8555 11.6718C35.8662 11.4835 35.8839 11.3165 35.9088 11.1637C35.9337 11.0145 35.9692 10.8937 36.019 10.812C36.1504 10.5704 36.3566 10.3856 36.6337 10.2613C36.9109 10.1334 37.1952 10.0516 37.4866 10.0161V9.8349H32.0389V10.0161C32.3161 10.0268 32.5932 10.073 32.8704 10.1511C33.1476 10.2293 33.3964 10.4318 33.6131 10.7587C33.7091 10.915 33.766 11.1176 33.7837 11.3663C33.8015 11.615 33.8157 11.853 33.8299 12.0804C33.8406 12.4784 33.8477 12.8337 33.8477 13.1499C33.8477 13.4626 33.8477 13.7717 33.8477 14.0737C33.8477 14.3757 33.8477 14.6884 33.8477 15.0153C33.8477 15.328 33.8477 15.6797 33.8477 16.067H28.1156C28.1156 15.9462 28.1156 15.7223 28.1156 15.3955C28.1156 15.3812 28.1156 15.3706 28.1156 15.3564C27.9806 15.6193 27.8207 15.8645 27.6359 16.0812C27.3765 16.3868 27.0673 16.6568 26.7191 16.8806C26.5307 17.0015 26.3353 17.108 26.1434 17.2004C26.1434 17.6161 26.1398 18.0212 26.1363 18.412C26.1292 18.7567 26.1256 19.0729 26.1185 19.3642C26.1114 19.6556 26.1078 19.883 26.1078 20.0535C26.1078 20.2454 26.1007 20.4479 26.0901 20.6611C26.0794 20.8707 26.0616 21.0697 26.0439 21.2509C26.0261 21.4321 26.0012 21.592 25.9728 21.7306C25.9408 21.8692 25.9017 21.9686 25.8555 22.029C25.7098 22.1996 25.5002 22.3382 25.223 22.4554C24.9671 22.562 24.6046 22.7006 24.2813 22.7006H23.3822C23.1086 22.7006 22.7034 22.6331 22.4405 22.5727C22.1704 22.5123 21.8896 22.4483 21.5805 22.2458C21.4668 22.1712 21.3459 22.061 21.2002 21.9473C21.0545 21.8336 20.9053 21.7022 20.7489 21.5565C20.5926 21.4108 20.454 21.2687 20.3331 21.123C19.825 20.5545 19.299 19.9647 18.7482 19.35C18.1974 18.7353 17.6821 18.1562 17.1988 17.6126C16.7155 17.069 16.2998 16.5964 15.9515 16.1913C15.5997 15.7863 15.3794 15.5234 15.2834 15.4026C15.4895 15.1858 15.7134 14.9549 15.9622 14.7062C16.2109 14.4574 16.4632 14.2016 16.7226 13.9387C16.9821 13.6722 17.245 13.4093 17.5115 13.1428C17.7781 12.8763 18.0375 12.6312 18.2898 12.4002C18.9401 11.7962 19.5798 11.2668 20.2088 10.8084C20.4931 10.6024 20.7774 10.4354 21.0581 10.311C21.5343 10.1014 22.4511 10.1227 22.5471 10.1298C22.643 10.1334 22.7176 10.1405 22.8029 10.144C22.842 10.1476 22.874 10.1511 22.9024 10.1511C23.0375 10.1618 23.169 10.176 23.3004 10.1973C23.6238 10.2471 23.933 10.3359 24.2208 10.4673C24.8001 10.7445 25.2656 11.1531 25.621 11.6932C25.9763 12.2332 26.154 12.855 26.154 13.5514C26.154 14.3082 25.9479 14.9904 25.5392 15.598C25.1306 16.2056 24.5407 16.6426 23.7695 16.9055C23.3964 17.037 22.9948 17.1187 22.5613 17.1507C22.1277 17.1791 21.6658 17.1969 21.1718 17.1969C21.1718 17.1009 21.1718 16.8345 21.1718 16.4045C21.1718 15.9711 21.1718 15.4665 21.1718 14.8874C21.1718 14.3082 21.1754 13.722 21.1825 13.1179C21.1896 12.5175 21.1967 12.0058 21.2109 11.583C21.2216 11.3059 21.2358 11.0927 21.2464 10.9435C21.2535 10.8653 21.2571 10.7978 21.2642 10.7374C21.0083 10.8511 20.7489 11.0003 20.4895 11.1922C20.0666 11.5013 19.6331 11.8495 19.1995 12.2261C19.2031 12.4215 19.2066 12.617 19.2066 12.8088V16.3264C19.2066 16.6497 19.2066 17.0015 19.2066 17.3745C19.2066 17.7369 19.2031 18.0887 19.196 18.4298C19.1924 18.6714 19.1889 18.9023 19.1818 19.1191L20.6885 20.8068C20.8093 20.9489 20.9337 21.0804 21.0723 21.2083C21.1256 21.258 21.1789 21.3042 21.2322 21.3504C21.2287 21.322 21.2251 21.2971 21.2251 21.2722C21.2145 20.9951 21.2002 20.6647 21.1896 20.2809C21.1896 20.0749 21.186 19.8865 21.1789 19.7124C21.1718 19.5383 21.1683 19.35 21.1683 19.144C21.1683 18.9379 21.1683 18.7034 21.1683 18.4404C21.1683 18.1633 21.1683 17.8329 21.1683 17.4491C21.4561 17.4491 21.783 17.4491 22.142 17.4491C22.5151 17.4491 22.8953 17.4349 23.2862 17.4029C23.6771 17.3745 24.0645 17.3283 24.4518 17.2679C24.8356 17.2075 25.1981 17.1187 25.5357 16.9979C25.8591 16.8771 26.1789 16.7172 26.4916 16.5182C26.8043 16.3193 27.078 16.0812 27.3125 15.8041C27.5471 15.5269 27.7354 15.2071 27.8811 14.8483C28.0268 14.4859 28.0979 14.0844 28.0979 13.6402C28.0979 12.919 27.9237 12.2936 27.5755 11.7642C27.2272 11.2348 26.7866 10.8262 26.2571 10.5384C25.7169 10.2364 25.1377 10.0481 24.5265 9.96992C23.9472 9.8953 23.2862 9.85622 22.5471 9.85266L17.2201 9.84911V10.0303C17.5329 10.0801 17.8101 10.1831 18.0517 10.3394C18.2934 10.4958 18.4142 10.748 18.4142 11.0998C18.4142 11.3059 18.3324 11.5333 18.169 11.7891C18.0055 12.0414 17.8207 12.2901 17.6182 12.5317C17.3303 12.8444 16.9856 13.2139 16.5876 13.6367C16.1896 14.0595 15.788 14.4681 15.3829 14.8661C14.9778 15.264 14.594 15.6229 14.2244 15.9426C13.8548 16.2624 13.5634 16.4898 13.3467 16.6213C13.3467 15.9462 13.3467 15.3919 13.3467 14.9549C13.3467 14.5072 13.3467 14.127 13.3467 13.8143C13.3467 13.5017 13.3502 13.2245 13.3573 12.9829C13.3644 12.7413 13.3715 12.4819 13.3858 12.2048C13.3964 11.6967 13.4604 11.3059 13.5741 11.0287C13.6878 10.7516 13.83 10.542 14.0005 10.4034C14.1676 10.2648 14.363 10.176 14.5798 10.1334C14.7966 10.0907 15.0204 10.0587 15.2479 10.0339V9.85266H9.62955V10.0339C9.94227 10.0694 10.2195 10.1369 10.4611 10.2328C10.7028 10.3288 10.9089 10.4816 11.0759 10.6841C11.2074 10.8546 11.2891 11.1318 11.3211 11.5155C11.3495 11.9028 11.3673 12.3256 11.3673 12.7839V16.3122C11.3673 16.639 11.3673 16.9872 11.3673 17.3603C11.3673 17.7227 11.3673 18.078 11.3673 18.4298C11.3673 18.7673 11.3637 19.08 11.3566 19.3713C11.3495 19.6591 11.346 19.8901 11.346 20.0606C11.346 20.2525 11.3424 20.455 11.3353 20.6682C11.3282 20.8779 11.3175 21.0768 11.2998 21.2651C11.282 21.4535 11.2536 21.6169 11.218 21.7626C11.1825 21.9082 11.1327 22.0148 11.0723 22.0895C10.9266 22.26 10.717 22.3915 10.4398 22.4874C10.1626 22.5833 9.8712 22.6579 9.57269 22.7041V22.8853H15.3829V22.7041C15.2621 22.6935 15.1199 22.6722 14.9565 22.6402C14.793 22.6118 14.626 22.5691 14.459 22.5123C14.2884 22.459 14.132 22.3879 13.9899 22.3026C13.8442 22.2174 13.7305 22.1143 13.6452 21.9935C13.5244 21.8372 13.4462 21.6062 13.4106 21.3042C13.3751 21.0022 13.3502 20.6753 13.3396 20.3271C13.3289 19.9292 13.3218 19.4531 13.3218 18.8988C13.3218 18.3303 13.3218 17.7334 13.3218 17.108C13.3573 17.0121 13.3893 16.941 13.4213 16.8984C13.4497 16.8558 13.5137 16.8345 13.6132 16.8345C13.6985 16.8345 13.798 16.8771 13.9117 16.9624C14.0254 17.0476 14.2422 17.2644 14.5549 17.6126C15.3047 18.4333 16.0226 19.2434 16.7191 20.0464C17.412 20.8494 18.1477 21.6951 18.9188 22.5904C18.9899 22.6757 19.0574 22.7397 19.1178 22.7787C19.1782 22.8214 19.2315 22.8534 19.2813 22.8782H29.697V22.697C29.4447 22.6722 29.1853 22.6082 28.9188 22.4981C28.6522 22.3879 28.4461 22.2316 28.304 22.0255C28.208 21.894 28.1512 21.6631 28.1405 21.3362C28.1299 21.0093 28.1227 20.6718 28.1227 20.3236V16.4259H33.8548C33.8548 16.5467 33.8548 16.7563 33.8548 17.0583C33.8548 17.3497 33.8548 17.6872 33.8548 18.0709C33.8548 18.444 33.8548 18.849 33.8548 19.2825C33.8548 19.7053 33.8477 20.1139 33.837 20.5154C33.837 20.6611 33.8335 20.8103 33.8264 20.9667C33.8193 21.123 33.8121 21.2758 33.7979 21.4179C33.7873 21.5636 33.7695 21.688 33.7517 21.7981C33.734 21.9082 33.7126 21.9793 33.6878 22.0148C33.5918 22.1712 33.3928 22.3133 33.0908 22.4412C32.7887 22.5691 32.4156 22.6508 31.9678 22.6864V22.8676H37.5293V22.6864C37.213 22.6544 36.9216 22.5904 36.6551 22.4945Z" fill="#3D4D55"/>
<path d="M42.7425 31.7218V4.29565H4.29908V31.7218C4.2671 32.5284 4.17471 43.7668 23.1725 51.246L23.5208 51.3845L23.869 51.246C42.8669 43.7703 42.7745 32.5284 42.7425 31.7218ZM23.5208 50.3577C21.8399 49.6968 20.3189 49.004 18.933 48.2934C18.8584 47.6218 18.8193 46.9681 18.83 46.396C18.8868 46.2361 18.9472 46.0798 19.0076 45.9306C19.2955 45.2306 19.7966 44.6479 20.1981 44.0119C20.6388 43.312 21.1185 42.6333 21.5414 41.9227C21.7582 41.5603 22.0105 41.237 22.2948 40.9456C19.7966 41.3471 18.3644 40.3878 17.7959 39.83C19.9067 40.9705 22.373 40.7502 23.5172 39.9188C23.4995 39.9436 23.4888 39.9685 23.4781 39.9934C24.5123 39.2899 25.6032 38.6894 26.7439 38.1707C27.4653 37.8438 28.1938 37.5098 29.0147 37.5062C29.0645 37.5062 29.1142 37.5027 29.164 37.5027C29.331 37.5205 29.5051 37.5276 29.6828 37.5169C29.7397 37.5133 29.793 37.5098 29.8498 37.5027C30.0595 37.5062 30.2514 37.4991 30.4255 37.4565C31.5556 37.19 32.1668 36.2556 32.0353 35.1896C31.9465 34.4897 31.4632 32.3116 31.5805 31.6721C31.7155 30.9188 31.2784 30.0732 30.3296 29.892C29.5904 29.7534 25.4504 28.8261 24.0858 28.2292C23.471 27.9591 22.9806 28.0693 22.8101 28.1012C21.7795 28.2896 18.6345 29.224 17.6359 29.5367C16.8079 29.7996 15.8698 30.3717 15.5037 30.5209C14.7042 30.1265 14.0148 30.0412 13.6132 30.1549C12.8456 30.3717 12.4227 31.029 12.4654 31.7289C12.476 31.7893 12.4974 32.0878 12.6715 32.404L12.675 32.4076C12.8563 32.7345 13.2045 33.0756 13.8762 33.1715C13.1761 33.207 13.002 33.1893 12.6964 32.9405C12.6679 32.969 12.636 33.008 12.604 33.0542C9.98137 36.284 7.45828 36.8809 6.63739 36.991C5.14841 33.9212 5.26568 31.7432 5.26568 31.7432V5.24788H23.535H41.8043V31.7432C41.7865 31.7432 42.3942 42.9282 23.5208 50.3577Z" fill="#3D4D55"/>
<path d="M36.4276 28.3642C36.2677 28.6946 35.9656 28.9753 35.5463 29.0748C35.8839 28.9043 36.2428 28.4921 36.2926 28.3145C36.2961 28.2931 36.3032 28.2647 36.3068 28.2256C36.3352 27.9094 36.2393 27.6749 36.1327 27.5221C35.8377 27.0993 35.5641 26.5273 35.557 25.6923C35.557 25.6354 35.525 25.4578 35.4219 25.3618C35.2158 25.1735 34.9529 25.2304 34.8072 25.3618C34.7076 25.4542 34.3878 25.9588 34.2954 26.1258C34.2563 26.1968 34.2066 26.2892 34.1675 26.3603C34.0396 26.6161 33.7126 27.2201 33.5101 28.8261C33.4248 27.2983 33.8761 26.3318 33.9934 25.9978C33.8583 25.7527 33.7375 25.5573 33.67 25.3725C33.6025 25.1877 33.4923 25.1416 33.4319 25.1025C33.1512 24.9675 32.874 25.17 32.8242 25.3903C32.7105 25.8877 32.6785 26.211 32.6643 26.577C32.6359 27.2947 32.7816 28.016 32.9379 28.4921C32.9486 28.5241 33.0126 28.7231 33.0801 28.8865C32.6856 28.7621 32.4617 28.7337 32.0922 28.6769C32.1348 28.6982 32.1703 28.7408 32.1952 28.7764C32.4511 28.8048 32.8313 28.8652 33.1014 28.954C33.0445 28.9647 32.9237 29.0286 32.906 29.1636C32.8846 29.3377 33.0659 29.5083 33.2649 29.4159C33.375 29.6753 33.5492 29.8067 33.5776 29.8281C33.9614 30.1194 34.1355 30.0057 34.4127 30.1301C34.633 30.226 34.7148 30.2758 34.8534 30.4925C34.9493 30.6417 35.3189 30.8691 35.5143 30.8904C35.6387 30.9046 35.9372 30.926 35.8768 30.8371C35.7347 30.6168 35.358 30.2367 35.127 30.0341C35.0595 29.9737 34.9529 29.8885 34.8356 29.7961C35.4468 29.8814 36.0723 30.0768 36.5449 30.3362C37.2485 30.7199 37.4866 30.1976 37.5186 30.0697C37.6003 29.7037 37.2876 28.5596 36.4276 28.3642Z" fill="#3D4D55"/>
<path d="M63.9862 44.1257C64.5548 44.1257 64.8924 43.6815 64.8924 42.8181V38.455H65.763V42.8537C65.763 44.1434 65.1305 44.9073 64.0395 44.9073C63.1404 44.9073 62.483 44.4277 62.2875 43.6282L62.945 43.3333L63.0871 43.3689C63.2221 43.8592 63.5242 44.1257 63.9862 44.1257Z" fill="#3D4D55"/>
<path d="M68.6059 42.2781V38.4585H69.4765V42.207C69.4765 43.5216 69.9918 44.1008 71.1397 44.1008C72.2768 44.1008 72.7921 43.5216 72.7921 42.1999V38.4585H73.6627V42.2709C73.6627 43.9587 72.7921 44.918 71.1397 44.918C69.4232 44.9144 68.6059 44.0084 68.6059 42.2781Z" fill="#3D4D55"/>
<path d="M76.5519 38.455H77.2022L79.8781 41.539C80.2761 42.0009 80.6706 42.4628 81.0792 42.9603H81.1077C81.097 42.4628 81.0899 42.0009 81.0899 41.3614V38.455H81.9534V44.8611H81.6158L78.6485 41.4573C78.2505 41.0025 77.849 40.5335 77.4296 40.0432H77.4012C77.419 40.5335 77.419 41.0025 77.419 41.635V44.7439H76.5554V38.455H76.5519Z" fill="#3D4D55"/>
<path d="M85.7594 38.455V44.7475H84.8887V38.455H85.7594Z" fill="#3D4D55"/>
<path d="M88.3997 41.603C88.3997 39.7376 89.7963 38.288 91.7686 38.288C93.7409 38.288 95.1268 39.7376 95.1268 41.603C95.1268 43.4683 93.7124 44.918 91.7686 44.918C89.8141 44.9144 88.3997 43.4683 88.3997 41.603ZM94.2135 41.603C94.2135 40.1818 93.2078 39.1052 91.7686 39.1052C90.3294 39.1052 89.3166 40.1818 89.3166 41.603C89.3166 43.0064 90.34 44.1008 91.7686 44.1008C93.1972 44.1008 94.2135 43.0064 94.2135 41.603Z" fill="#3D4D55"/>
<path d="M102.451 44.6053L102.391 44.7475H101.502L99.608 42.0365H98.6557V44.7475H97.7744V38.455H99.6684C101.029 38.455 101.783 39.0483 101.783 40.2777C101.783 41.0949 101.339 41.6812 100.511 41.9121L102.451 44.6053ZM98.6557 41.301H99.4908C100.479 41.301 100.912 41.0167 100.912 40.2777C100.912 39.496 100.468 39.2118 99.4908 39.2118H98.6557V41.301Z" fill="#3D4D55"/>
<path d="M112.973 44.7474L112.351 44.115C111.818 44.6479 111.161 44.9144 110.397 44.9144C109.213 44.9144 108.389 44.1576 108.378 43.0917C108.368 42.3704 108.776 41.7842 109.604 41.34C109.061 40.8071 108.84 40.2741 108.84 39.766C108.84 38.8777 109.48 38.2808 110.468 38.2808C111.41 38.2808 112.095 38.8671 112.095 39.6772C112.095 40.4411 111.68 41.038 110.806 41.4892L112.255 42.946C112.486 42.5196 112.657 41.9938 112.746 41.3898L112.824 41.3365H113.606C113.428 42.2354 113.162 42.9531 112.813 43.5038L114.05 44.7403H112.973V44.7474ZM111.811 43.5749L110.113 41.8517C109.48 42.1892 109.213 42.5729 109.224 43.0881C109.231 43.7455 109.722 44.1896 110.425 44.1896C110.958 44.186 111.427 43.9728 111.811 43.5749ZM109.633 39.7518C109.633 40.1675 109.999 40.6685 110.301 40.9883C111.058 40.5797 111.307 40.1959 111.307 39.7092C111.307 39.2828 110.98 38.9452 110.479 38.9452C109.953 38.9452 109.633 39.2828 109.633 39.7518Z" fill="#3D4D55"/>
<path d="M119.835 43.5998L120.457 43.1735L120.606 43.209C120.98 43.8841 121.406 44.1505 122.028 44.1505C122.703 44.1505 123.176 43.6958 123.176 43.145C123.176 42.6121 122.909 42.2568 121.779 41.7949C120.489 41.2512 120.045 40.7005 120.045 39.8762C120.045 38.9879 120.773 38.2844 121.975 38.2844C122.863 38.2844 123.485 38.6682 123.851 39.2899L123.247 39.7163L123.098 39.6808C122.831 39.2722 122.501 39.0306 121.96 39.0306C121.321 39.0306 120.955 39.3859 120.955 39.8655C120.955 40.3097 121.186 40.5584 122.298 41.0665C123.719 41.706 124.086 42.2497 124.086 43.1095C124.086 44.0973 123.24 44.9038 122.042 44.9038C121.054 44.9074 120.351 44.5343 119.835 43.5998Z" fill="#3D4D55"/>
<path d="M130.361 38.455L130.45 39.2366H127.561V41.1375H130.226V41.9121H127.561V43.9658H130.45L130.361 44.7475H126.69V38.455H130.361Z" fill="#3D4D55"/>
<path d="M133.186 38.455H133.837L136.513 41.539C136.911 42.0009 137.305 42.4628 137.714 42.9603H137.742C137.732 42.4628 137.724 42.0009 137.724 41.3614V38.455H138.588V44.8611H138.25L135.283 41.4573C134.885 41.0025 134.483 40.5335 134.064 40.0432H134.036C134.053 40.5335 134.053 41.0025 134.053 41.635V44.7439H133.19V38.455H133.186Z" fill="#3D4D55"/>
<path d="M142.394 38.455V44.7475H141.523V38.455H142.394Z" fill="#3D4D55"/>
<path d="M145.034 41.603C145.034 39.7376 146.431 38.288 148.403 38.288C150.375 38.288 151.761 39.7376 151.761 41.603C151.761 43.4683 150.347 44.918 148.403 44.918C146.449 44.9144 145.034 43.4683 145.034 41.603ZM150.848 41.603C150.848 40.1818 149.842 39.1052 148.403 39.1052C146.964 39.1052 145.951 40.1818 145.951 41.603C145.951 43.0064 146.975 44.1008 148.403 44.1008C149.832 44.1008 150.848 43.0064 150.848 41.603Z" fill="#3D4D55"/>
<path d="M159.085 44.6053L159.025 44.7475H158.137L156.242 42.0365H155.29V44.7475H154.409V38.455H156.303C157.664 38.455 158.417 39.0483 158.417 40.2777C158.417 41.0949 157.973 41.6812 157.145 41.9121L159.085 44.6053ZM155.29 41.301H156.125C157.113 41.301 157.547 41.0167 157.547 40.2777C157.547 39.496 157.102 39.2118 156.125 39.2118H155.29V41.301Z" fill="#3D4D55"/>
<path d="M165.308 38.455H166.178V41.166H169.476V38.455H170.347V44.7475H169.476V41.9583H166.178V44.7475H165.308V38.455Z" fill="#3D4D55"/>
<path d="M174.153 38.455V44.7475H173.282V38.455H174.153Z" fill="#3D4D55"/>
<path d="M176.79 41.6101C176.79 39.6914 178.193 38.288 180.095 38.288C181.445 38.288 182.405 38.8387 183.026 39.9153L182.412 40.3345L182.262 40.299C181.736 39.4889 181.107 39.1087 180.12 39.1087C178.723 39.1087 177.71 40.1675 177.71 41.6136C177.71 43.0526 178.698 44.1115 180.056 44.1115C181.175 44.1115 182.216 43.4968 182.277 42.2639V42.2106H180.464V41.4893H183.069V44.751H182.259V44.3779C182.259 44.1399 182.294 43.9516 182.341 43.7917L182.323 43.7846C181.79 44.5662 180.98 44.9216 180.013 44.9216C178.122 44.9144 176.79 43.5394 176.79 41.6101Z" fill="#3D4D55"/>
<path d="M185.937 38.455H186.808V41.166H190.105V38.455H190.976V44.7475H190.105V41.9583H186.808V44.7475H185.937V38.455Z" fill="#3D4D55"/>
<path d="M197.607 43.5998L198.229 43.1735L198.378 43.209C198.751 43.8841 199.178 44.1505 199.8 44.1505C200.475 44.1505 200.947 43.6958 200.947 43.145C200.947 42.6121 200.681 42.2568 199.551 41.7949C198.261 41.2512 197.817 40.7005 197.817 39.8762C197.817 38.9879 198.545 38.2844 199.746 38.2844C200.635 38.2844 201.257 38.6682 201.623 39.2899L201.019 39.7163L200.869 39.6808C200.603 39.2722 200.272 39.0306 199.732 39.0306C199.092 39.0306 198.726 39.3859 198.726 39.8655C198.726 40.3097 198.957 40.5584 200.07 41.0665C201.491 41.706 201.857 42.2497 201.857 43.1095C201.857 44.0973 201.011 44.9038 199.814 44.9038C198.822 44.9074 198.122 44.5343 197.607 43.5998Z" fill="#3D4D55"/>
<path d="M204.167 41.603C204.167 39.6914 205.571 38.288 207.447 38.288C208.737 38.288 209.704 38.8387 210.318 39.9686L209.696 40.3878L209.544 40.3523C209.053 39.4889 208.389 39.1087 207.465 39.1087C206.104 39.1087 205.091 40.1675 205.091 41.6065C205.091 43.0384 206.121 44.1043 207.472 44.1043C208.478 44.1043 209.117 43.7313 209.586 42.8785L209.746 42.843L210.343 43.2623C209.686 44.3921 208.751 44.9251 207.447 44.9251C205.56 44.9144 204.167 43.5216 204.167 41.603Z" fill="#3D4D55"/>
<path d="M212.895 38.455H213.765V41.166H217.063V38.455H217.934V44.7475H217.063V41.9583H213.765V44.7475H212.895V38.455Z" fill="#3D4D55"/>
<path d="M220.574 41.603C220.574 39.7376 221.971 38.288 223.943 38.288C225.915 38.288 227.301 39.7376 227.301 41.603C227.301 43.4683 225.887 44.918 223.943 44.918C221.985 44.9144 220.574 43.4683 220.574 41.603ZM226.385 41.603C226.385 40.1818 225.379 39.1052 223.94 39.1052C222.5 39.1052 221.488 40.1818 221.488 41.603C221.488 43.0064 222.511 44.1008 223.94 44.1008C225.368 44.1008 226.385 43.0064 226.385 41.603Z" fill="#3D4D55"/>
<path d="M229.657 41.603C229.657 39.7376 231.054 38.288 233.026 38.288C234.999 38.288 236.385 39.7376 236.385 41.603C236.385 43.4683 234.97 44.918 233.026 44.918C231.072 44.9144 229.657 43.4683 229.657 41.603ZM235.468 41.603C235.468 40.1818 234.462 39.1052 233.023 39.1052C231.584 39.1052 230.571 40.1818 230.571 41.603C230.571 43.0064 231.594 44.1008 233.023 44.1008C234.451 44.1008 235.468 43.0064 235.468 41.603Z" fill="#3D4D55"/>
<path d="M239.906 38.455V43.9551H242.838L242.738 44.7475H239.032V38.455H239.906Z" fill="#3D4D55"/>
<path d="M243.403 31.8604H62.1276V32.5213H243.403V31.8604Z" fill="#E7B00C"/>
<path d="M73.812 25.2055C73.7019 25.1416 73.5491 25.0527 73.3749 24.8573C71.5235 22.7006 69.9314 20.8459 68.1226 18.8633C67.3586 18.0354 67.1845 17.9253 66.989 17.9253C66.7722 17.9253 66.726 18.0354 66.6408 18.2522C66.6408 19.7551 66.6408 21.1728 66.6621 22.1321C66.6834 22.96 66.7509 23.7665 67.0317 24.136C67.4474 24.701 68.5349 24.9426 69.1248 24.9852V25.202H62.1276V24.9852C62.8455 24.8751 63.5882 24.6583 63.9364 24.2426C64.242 23.8944 64.242 22.7397 64.2634 21.8017C64.2847 20.9951 64.2847 18.8811 64.2847 17.2893V13.0434C64.2847 11.9526 64.2634 10.908 63.9364 10.5136C63.5207 10.0339 62.9556 9.81716 62.1916 9.72833V9.5116H68.9506V9.72833C67.8597 9.8598 66.7722 9.92375 66.7047 12.3434C66.6621 13.6722 66.6621 14.4148 66.6621 17.6623C67.7104 17.0512 70.4325 14.2621 71.8078 12.7378C72.3088 12.1728 72.7673 11.5155 72.7673 11.0145C72.7673 10.1654 72.0707 9.83848 71.328 9.72833V9.5116H77.1702V9.72833C75.6884 9.8598 74.1603 11.146 72.6144 12.585C71.4169 13.7184 69.999 15.1788 68.9968 16.202C69.4766 16.8132 72.6358 20.3662 75.0807 23.0879C75.6706 23.763 76.694 24.5482 76.8469 24.6122C77.2164 24.7649 77.9165 24.939 78.7232 24.9817V25.1984H73.812V25.2055Z" fill="#3D4D55"/>
<path d="M93.8688 25.2055H80.5284V24.9888C81.2462 24.8786 81.925 24.6193 82.3159 24.1609C82.6002 23.8127 82.6854 22.7432 82.7068 21.8052C82.7281 20.9987 82.7494 18.8846 82.7494 17.2928V13.0434C82.7494 12.0201 82.7281 10.7339 82.3798 10.3608C81.9427 9.90243 81.5092 9.83848 80.7238 9.72833V9.5116H92.7565L94.2384 13.1073L94.0216 13.2175C92.8453 11.7571 91.7117 10.7552 90.7096 10.2542C90.2085 10.0161 88.7906 9.81716 86.8965 9.81716C86.2853 9.81716 85.5213 9.8598 85.2405 9.92731C85.1979 10.3857 85.1304 11.9774 85.1304 13.8925C85.1304 16.0954 85.1517 16.8558 85.1517 17.0086C85.4147 17.0086 87.1346 17.0086 87.8987 16.8345C89.6648 16.4188 90.077 15.463 90.4288 13.825H90.6918V20.6896H90.4288C90.1872 19.7729 89.6648 18.6181 89.1424 18.1385C88.684 17.7228 88.0301 17.4421 87.1595 17.3959C86.2889 17.3497 86.0898 17.3532 85.1766 17.3532C85.1339 17.7441 85.1339 18.6181 85.1339 19.4673C85.1339 20.2525 85.1339 21.4961 85.1552 22.0611C85.1766 22.9991 85.2192 23.9122 85.4822 24.3066C85.7451 24.6974 86.8788 24.8715 88.0337 24.8715C88.5134 24.8715 89.3628 24.8502 90.1908 24.7401C92.0209 24.502 93.286 23.4539 94.7252 20.9703L94.9633 21.0342L93.8688 25.2055Z" fill="#3D4D55"/>
<path d="M111.612 25.2055H97.6179V24.9888C98.3358 24.8786 99.1424 24.6193 99.5369 24.1609C99.8212 23.8127 99.9278 22.7432 99.9527 21.8052C99.974 20.9987 99.9953 18.8846 99.9953 17.2928V13.0647C99.9953 12.0414 99.9953 10.9506 99.6684 10.5597C99.2526 10.0801 98.5348 9.81715 97.7707 9.73187V9.51514H104.725V9.73187C103.94 9.84202 102.479 10.0801 102.437 11.6505C102.373 13.6793 102.373 14.8554 102.373 17.0121C102.373 18.9947 102.373 20.0429 102.394 22.0255C102.415 22.9635 102.415 23.9015 102.678 24.2924C102.895 24.5979 104.182 24.8822 105.336 24.8822C105.816 24.8822 107.515 24.8395 108.521 24.5553C110.83 23.9229 111.484 22.3986 112.206 20.654L112.422 20.718L111.612 25.2055Z" fill="#3D4D55"/>
<path d="M125.912 10.4283C125.717 10.6237 125.322 11.1034 124.626 12.784C123.449 15.5944 121.768 19.8688 120.507 23.1803L119.437 25.4045H119.174L114.402 13.2636C113.965 12.1728 113.748 11.6932 113.378 10.9755C113.204 10.6486 112.724 9.79938 111.395 9.75319V9.51514H117.959V9.73187C117.675 9.77451 116.235 9.94861 116.235 10.844C116.235 11.6079 119.441 19.5419 120.443 22.1143C120.706 21.4606 122.145 17.8435 123.712 13.6367C124.302 12.0449 124.409 11.281 124.409 10.9541C124.409 10.1049 123.08 9.8207 122.316 9.73187V9.51514H127.394V9.75319C126.63 9.83847 126.001 10.3181 125.912 10.4283Z" fill="#3D4D55"/>
<path d="M141.694 12.5211C140.976 13.6119 139.036 16.6178 138.336 17.6659V22.0469C138.336 22.8747 138.357 23.8127 138.577 24.1183C139.014 24.7507 139.796 24.8822 140.429 24.9888V25.2055H133.716V24.9888C134.48 24.9 134.96 24.836 135.614 24.0934C135.898 23.7879 135.898 22.6544 135.919 21.7164C135.94 20.9099 135.962 19.8191 135.962 18.2273C135.809 17.9892 133.304 13.889 132.476 12.6028C131.385 10.9044 130.71 9.81362 129.533 9.72479V9.50806H136.182V9.72479C135.333 9.81362 134.284 9.89889 134.284 10.6415C134.284 11.011 134.807 11.8851 135.265 12.6703C135.877 13.7149 137.142 15.7437 138.098 17.3142C138.84 16.2234 140.475 13.6296 141.019 12.7165C141.282 12.2795 141.804 11.4303 141.804 10.8405C141.804 9.92377 140.759 9.85981 139.953 9.72835V9.51161H144.988V9.72835C143.375 9.96995 142.764 10.908 141.694 12.5211Z" fill="#3D4D55"/>
<path d="M162.838 11.0821C162.643 11.5191 162.6 12.8479 162.554 14.1768C162.511 15.4204 162.444 17.1862 162.444 19.1262C162.444 20.7819 162.465 23.3757 162.465 25.0776C162.465 25.1878 162.401 25.3157 162.248 25.3157C162.138 25.3157 161.985 25.2055 161.857 25.0527C156.886 19.3643 153.986 15.7686 150.041 11.3414V20.5403C150.041 22.0007 150.084 23.3082 150.368 23.8767C150.695 24.5304 151.349 24.836 152.525 24.9888V25.2055H147.163V24.9888C147.859 24.9 148.645 24.6619 149.039 24.0295C149.43 23.4183 149.519 22.1996 149.562 20.5403C149.604 19.2968 149.651 17.5309 149.651 15.5909C149.651 13.9352 149.672 13.5408 149.629 11.8637C149.455 10.1654 148.233 9.8598 147.319 9.72833V9.5116H151.744L162.078 21.5849V14.1768C162.078 13.022 162.078 11.8673 161.861 11.2562C161.577 10.4496 160.88 9.92731 159.483 9.73189V9.51515H164.889V9.73189C163.822 9.88112 163.19 10.2542 162.838 11.0821Z" fill="#3D4D55"/>
<path d="M187.468 18.0993C185.834 18.6891 183.609 18.643 182.191 18.643C182.191 20.519 182.191 21.1052 182.212 22.0646C182.234 23.0026 182.212 23.6563 182.497 24.0934C182.735 24.4629 183.389 24.9426 184.569 24.9887V25.2055H177.593V24.9887C178.311 24.8786 179.053 24.6619 179.423 24.2035C179.728 23.834 179.75 22.7432 179.771 21.8052C179.792 20.9986 179.814 18.8846 179.814 17.2928V13.0433C179.814 12.02 179.792 10.7765 179.444 10.4069C179.007 9.94859 178.289 9.84199 177.504 9.73185V9.51511C178.048 9.51511 182.124 9.47247 183.694 9.47247C185.592 9.47247 187.031 9.58262 188.339 10.3003C189.604 10.9967 190.564 12.3043 190.564 14.0488C190.564 16.1807 189.06 17.5308 187.468 18.0993ZM185.88 10.208C185.183 9.88108 184.377 9.79225 183.549 9.79225C182.937 9.79225 182.632 9.85621 182.436 9.88108C182.348 10.2293 182.284 10.2506 182.241 11.5581C182.177 13.5869 182.198 17.9004 182.198 18.3374C183.375 18.3374 184.444 18.2948 185.336 17.9892C187.188 17.3567 188.215 15.765 188.215 13.9351C188.211 12.2581 187.273 10.8617 185.88 10.208Z" fill="#3D4D55"/>
<path d="M219.97 25.2055C219.469 24.6832 219.622 24.9 218.705 23.5498C217.614 21.9367 217.113 21.02 215.72 19.4069C215.151 18.7531 214.434 18.0781 213.691 17.9253C213.147 17.8151 212.973 17.8365 212.557 17.8151C212.557 19.6912 212.557 21.084 212.579 22.0433C212.6 22.9813 212.579 23.6351 212.863 24.0721C213.101 24.4416 213.755 24.9426 214.935 24.9888V25.2055H207.959V24.9888C208.677 24.8786 209.419 24.6619 209.789 24.2036C210.095 23.834 210.116 22.7432 210.137 21.8052C210.159 20.9987 210.18 18.8846 210.18 17.2928V13.0434C210.18 12.0201 210.159 10.7765 209.81 10.407C209.373 9.94863 208.872 9.84204 208.087 9.73189V9.51515C208.545 9.51515 212.49 9.49384 214.06 9.49384C216.001 9.49384 217.483 9.51515 218.726 10.1689C219.992 10.844 220.862 11.9561 220.862 13.7007C220.862 15.8361 219.206 17.101 217.266 17.7121V17.776C217.767 18.039 218.225 18.5613 218.662 19.1724C219.426 20.2632 220.386 21.6773 221.082 22.6615C222.152 24.1858 223.065 24.7969 224.441 24.9923V25.2091H219.97V25.2055ZM216.221 10.2755C215.525 9.94863 214.739 9.81716 213.911 9.81716C213.3 9.81716 212.93 9.8598 212.735 9.88112C212.671 10.2293 212.646 10.2506 212.603 11.5582C212.539 13.587 212.561 17.0725 212.561 17.5309C213.737 17.5309 214.764 17.4421 215.724 17.14C217.6 16.5502 218.36 15.1361 218.36 13.5657C218.357 12.1267 217.614 10.9293 216.221 10.2755Z" fill="#3D4D55"/>
<path d="M238.499 25.2055C238.389 25.1416 238.236 25.0527 238.062 24.8573C236.21 22.7006 234.618 20.8459 232.81 18.8633C232.046 18.0354 231.871 17.9253 231.676 17.9253C231.459 17.9253 231.413 18.0354 231.328 18.2522C231.328 19.7551 231.328 21.1728 231.349 22.1321C231.37 22.96 231.438 23.7665 231.719 24.136C232.131 24.701 233.222 24.9426 233.812 24.9852V25.202H226.815V24.9852C227.532 24.8751 228.275 24.6583 228.623 24.2426C228.929 23.8944 228.929 22.7397 228.95 21.8017C228.972 20.9951 228.972 18.8811 228.972 17.2893V13.0434C228.972 11.9526 228.95 10.908 228.623 10.5136C228.211 10.0339 227.643 9.81716 226.879 9.72833V9.5116H233.638V9.72833C232.547 9.8598 231.459 9.92375 231.392 12.3434C231.349 13.6722 231.349 14.4148 231.349 17.6623C232.397 17.0512 235.119 14.2621 236.495 12.7378C236.996 12.1728 237.454 11.5155 237.454 11.0145C237.454 10.1654 236.758 9.83848 236.015 9.72833V9.5116H241.857V9.72833C240.375 9.8598 238.847 11.146 237.301 12.585C236.104 13.7184 234.686 15.1788 233.684 16.202C234.164 16.8132 237.323 20.3662 239.768 23.0879C240.358 23.763 241.381 24.5482 241.534 24.6122C241.903 24.7649 242.603 24.939 243.41 24.9817V25.1984H238.499V25.2055Z" fill="#3D4D55"/>
<path d="M203.662 23.7381C203.346 23.063 203.126 22.6082 202.831 21.7981L198.151 9.86334H197.955C197.785 10.3075 194.014 19.7373 192.884 22.2351C192.269 23.5818 191.832 24.2355 191.655 24.4132C191.577 24.5127 191.001 24.9071 190.308 24.9888V25.2055H194.569V25.0065C193.876 24.9284 192.923 24.7507 192.923 24.0543C192.923 23.7985 193.062 23.262 193.339 22.5478C193.695 21.6169 194.071 20.7251 194.469 19.7338L194.647 19.3181C194.718 19.1404 194.789 18.9663 194.857 18.7922H199.38C199.448 18.9663 199.515 19.144 199.579 19.3181L199.739 19.7338C200.532 21.8123 201.164 23.6351 201.164 24.0899C201.164 24.8431 199.956 24.9817 199.778 24.9994V25.1984H205.564V24.9604C204.355 24.9248 203.78 23.9762 203.662 23.7381ZM194.981 18.4973C196.068 15.8112 196.914 13.8499 197.184 13.1997C197.604 14.2514 198.46 16.3868 199.267 18.4973H194.981Z" fill="#3D4D55"/>
</svg>
