<svg width="40" height="40" viewBox="0 0 40 40" fill="none" xmlns="http://www.w3.org/2000/svg">
<g clip-path="url(#clip0_72_222)">
<mask id="mask0_72_222" style="mask-type:alpha" maskUnits="userSpaceOnUse" x="0" y="0" width="40" height="40">
<path d="M40 20C40 8.9543 31.0457 0 20 0C8.9543 0 0 8.9543 0 20C0 31.0457 8.9543 40 20 40C31.0457 40 40 31.0457 40 20Z" fill="url(#paint0_linear_72_222)"/>
</mask>
<g mask="url(#mask0_72_222)">
<path d="M40 20C40 8.9543 31.0457 0 20 0C8.9543 0 0 8.9543 0 20C0 31.0457 8.9543 40 20 40C31.0457 40 40 31.0457 40 20Z" fill="url(#paint1_linear_72_222)"/>
<path d="M20.0289 21.5417C21.5064 21.5417 22.9508 21.1009 24.1794 20.2752C25.4079 19.4494 26.3654 18.2757 26.9309 16.9025C27.4963 15.5293 27.6443 14.0183 27.356 12.5605C27.0678 11.1027 26.3562 9.76365 25.3114 8.71274C24.2666 7.6617 22.9354 6.94597 21.4863 6.656C20.0371 6.36603 18.535 6.51485 17.1699 7.08364C15.8048 7.65244 14.638 8.61565 13.8172 9.85149C12.9963 11.0873 12.5581 12.5403 12.5581 14.0267C12.5581 16.0197 13.3452 17.9312 14.7462 19.3406C16.1473 20.7499 18.0474 21.5417 20.0289 21.5417Z" fill="white"/>
<path d="M32.3587 40.4651C32.905 40.4651 33.4289 40.2446 33.8152 39.8521C34.2015 39.4596 34.4185 38.9272 34.4185 38.3721C34.4185 34.4864 32.8994 30.7598 30.1954 28.0122C27.4914 25.2645 23.8239 23.7209 19.9999 23.7209C16.1759 23.7209 12.5084 25.2645 9.80444 28.0122C7.1004 30.7598 5.5813 34.4864 5.5813 38.3721C5.5813 38.9272 5.79832 39.4596 6.1846 39.8521C6.57089 40.2446 7.09481 40.4651 7.6411 40.4651H32.3587Z" fill="white"/>
</g>
</g>
<defs>
<linearGradient id="paint0_linear_72_222" x1="20" y1="0" x2="20" y2="40" gradientUnits="userSpaceOnUse">
<stop stop-color="#FAAB71"/>
<stop offset="1" stop-color="#FEE0C7"/>
</linearGradient>
<linearGradient id="paint1_linear_72_222" x1="20" y1="0" x2="20" y2="40" gradientUnits="userSpaceOnUse">
<stop offset="0.39" stop-color="#4A4A4A"/>
<stop offset="0.665" stop-color="#797979"/>
</linearGradient>
<clipPath id="clip0_72_222">
<rect width="40" height="40" fill="white"/>
</clipPath>
</defs>
</svg>
